<svg xmlns="http://www.w3.org/2000/svg" xml:space="preserve" id="Icons" x="0" y="0" viewBox="0 0 32 32"><path d="M31 16h-2v-2c0-.6-.4-1-1-1h-2v-2c0-.6-.4-1-1-1h-2V8h2c.6 0 1-.4 1-1V4c0-.6-.4-1-1-1h-3c-.6 0-1 .4-1 1v2h-2c-.6 0-1 .4-1 1v3h-4V7c0-.6-.4-1-1-1h-2V4c0-.6-.4-1-1-1H7c-.6 0-1 .4-1 1v3c0 .6.4 1 1 1h2v2H7c-.6 0-1 .4-1 1v2H4c-.6 0-1 .4-1 1v2H1c-.6 0-1 .4-1 1v9c0 .6.4 1 1 1h3c.6 0 1-.4 1-1v-5h1v5c0 .6.4 1 1 1h2v2c0 .6.4 1 1 1h4c.6 0 1-.4 1-1v-3c0-.6-.4-1-1-1h-3v-1h10v1h-3c-.6 0-1 .4-1 1v3c0 .6.4 1 1 1h4c.6 0 1-.4 1-1v-2h2c.6 0 1-.4 1-1v-5h1v5c0 .6.4 1 1 1h3c.6 0 1-.4 1-1v-9c0-.6-.4-1-1-1m-17 3c0 .6-.4 1-1 1h-3c-.6 0-1-.4-1-1v-3c0-.6.4-1 1-1h3c.6 0 1 .4 1 1zm9 0c0 .6-.4 1-1 1h-3c-.6 0-1-.4-1-1v-3c0-.6.4-1 1-1h3c.6 0 1 .4 1 1z" style="fill:red"/></svg>